<svg id="Calque_1" data-name="Calque 1" xmlns="http://www.w3.org/2000/svg" viewBox="0 0 424.91 332.96"><defs><style>.cls-1{fill:#444343;}.cls-2{fill:#2e93b0;}.cls-3{fill:#606060;}</style></defs><title>Plan de travail 5</title><polygon class="cls-1" points="16.03 224.17 16.03 233.02 29.29 233.02 29.29 274.95 39.21 274.95 39.21 233.02 52.47 233.02 52.47 224.17 16.03 224.17"/><polygon class="cls-1" points="60.53 274.95 60.53 224.17 93.98 224.17 93.98 233.02 70.44 233.02 70.44 244.93 90.48 244.93 90.48 253.77 70.44 253.77 70.44 266.11 93.98 266.11 93.98 274.95 60.53 274.95"/><path class="cls-1" d="M122.93,233h-9.35v13.41h9.35c4.35,0,7.2-2.79,7.2-6.71s-2.85-6.7-7.2-6.7m7.7,41.93-9.91-20.25h-7.14V275h-9.91V224.17h19.9c10.34,0,16.47,7.06,16.47,15.55a13.68,13.68,0,0,1-9.27,13.34L142.11,275Z"/><path class="cls-1" d="M169.56,233h-9.34v13.41h9.34c4.35,0,7.21-2.79,7.21-6.71s-2.86-6.7-7.21-6.7M177.27,275l-9.92-20.25h-7.13V275h-9.91V224.17h19.9c10.34,0,16.47,7.06,16.47,15.55a13.68,13.68,0,0,1-9.27,13.34L188.75,275Z"/><polygon class="cls-1" points="196.94 274.95 196.94 224.17 230.4 224.17 230.4 233.02 206.86 233.02 206.86 244.93 226.9 244.93 226.9 253.77 206.86 253.77 206.86 266.11 230.4 266.11 230.4 274.95 196.94 274.95"/><path class="cls-1" d="M254.07,275.38c-7.7,0-13.55-1.64-18.54-6.7l6.41-6.42c3.21,3.21,7.56,4.28,12.27,4.28,5.85,0,9-2.21,9-6.28a5.66,5.66,0,0,0-1.57-4.28c-1-.92-2.14-1.42-4.5-1.78l-6.13-.86c-4.35-.64-7.56-2-9.84-4.21-2.43-2.42-3.64-5.7-3.64-10,0-9.06,6.71-15.4,17.69-15.4,7,0,12,1.71,16.4,5.91l-6.27,6.21c-3.21-3.07-7.06-3.5-10.42-3.5-5.27,0-7.84,2.93-7.84,6.42a4.9,4.9,0,0,0,1.5,3.64,8.69,8.69,0,0,0,4.7,2l6,.85c4.64.65,7.56,1.93,9.7,3.93,2.71,2.56,3.93,6.27,3.93,10.77,0,9.84-8.21,15.4-18.83,15.4"/><polygon class="cls-1" points="282.23 274.95 282.23 224.17 315.68 224.17 315.68 233.02 292.15 233.02 292.15 244.93 312.19 244.93 312.19 253.77 292.15 253.77 292.15 266.11 315.68 266.11 315.68 274.95 282.23 274.95"/><polygon class="cls-1" points="355.4 274.95 335.29 243.79 335.29 274.95 325.38 274.95 325.38 224.17 334.22 224.17 354.33 255.27 354.33 224.17 364.25 224.17 364.25 274.95 355.4 274.95"/><path class="cls-1" d="M390.06,275.38c-7.7,0-13.55-1.64-18.54-6.7l6.42-6.42c3.2,3.21,7.55,4.28,12.26,4.28,5.85,0,9-2.21,9-6.28a5.66,5.66,0,0,0-1.57-4.28c-1-.92-2.14-1.42-4.49-1.78l-6.14-.86c-4.35-.64-7.56-2-9.84-4.21-2.43-2.42-3.64-5.7-3.64-10,0-9.06,6.71-15.4,17.69-15.4,7,0,12.05,1.71,16.4,5.91l-6.27,6.21c-3.21-3.07-7.06-3.5-10.42-3.5-5.27,0-7.84,2.93-7.84,6.42a4.9,4.9,0,0,0,1.5,3.64,8.76,8.76,0,0,0,4.7,2l6,.85c4.63.65,7.55,1.93,9.69,3.93,2.71,2.56,3.93,6.27,3.93,10.77,0,9.84-8.2,15.4-18.83,15.4"/><path class="cls-2" d="M235.66,165.4a66.76,66.76,0,0,1-22.52.89c-4.83-.73-9.56-1.79-14.92-2.81,3.08,1.26,5.71,2.44,8.47,3.45,12.65,4.62,25.62,6,39.24,2a66.37,66.37,0,0,1,19.71-2.87,38.33,38.33,0,0,0-10.87-2.2A79.06,79.06,0,0,0,235.66,165.4Z"/><path class="cls-2" d="M291.17,63.15c.24-.31.47-.64.7-1,7.83-11.33,5.3-25.76-5.88-33.58a24.25,24.25,0,0,0-18.21-4.3,23.43,23.43,0,0,0-10.84,5.11,91,91,0,1,0,34.23,33.73ZM268.68,29.32a17.52,17.52,0,0,1,3.07-.27,19.78,19.78,0,0,1,11.32,3.73c8.81,6.17,10.8,17.56,4.61,26.51A19.53,19.53,0,0,1,275,67.63a18.84,18.84,0,0,1-14.26-3.34c-8.74-6.23-10.67-17.67-4.49-26.59A19.43,19.43,0,0,1,268.68,29.32ZM127.18,98.61q.12-1,.27-2.1l19-20.25.34,6.44,5.77-11.19,7.46,14.25,1.89-9.37,20.49,18.16-22.94,22.5Zm-.28,2.67,65.1,39.8H132.9v.08a85.37,85.37,0,0,1-6.34-32.35C126.56,106.27,126.69,103.76,126.9,101.28Zm8.22,44.89H186.7v44.59A86.35,86.35,0,0,1,135.12,146.17Zm77.34,48.54a85.85,85.85,0,0,1-20.67-2.53v-46h18.76L164.5,119.9l35-34,14,11.06-1-8.83,32.44,27.16L203.15,74.22l-17.74,17.4-30.79-31L128.76,89.54A85.91,85.91,0,0,1,253.25,33.19c-.42.52-.82,1.05-1.21,1.61-7.8,11.28-5.34,25.74,5.73,33.63a24.1,24.1,0,0,0,14,4.57,23.41,23.41,0,0,0,4.07-.36A24.12,24.12,0,0,0,287.54,67a85.78,85.78,0,0,1-7.28,94.41c-2.19-.92-4.22-1.78-6.31-2.55-12.65-4.62-25.62-6-39.25-2.05a66.25,66.25,0,0,1-19.7,2.87,38.26,38.26,0,0,0,10.87,2.2A79.1,79.1,0,0,0,245,160.43a66.71,66.71,0,0,1,22.51-.89c4.08.62,8.08,1.46,12.45,2.32A85.77,85.77,0,0,1,212.46,194.71Z"/><rect class="cls-2" x="161.94" y="155.75" width="13.67" height="13.67"/><polygon class="cls-2" points="273.99 83.39 269.92 83.39 271.95 129.32 273.99 83.39"/><polygon class="cls-2" points="249.35 76.39 236.68 101.58 252.86 78.46 249.35 76.39"/><polygon class="cls-2" points="238.16 59.94 216.61 70.27 239.65 63.73 238.16 59.94"/><polygon class="cls-2" points="237.53 39.15 195.69 33.75 236.76 43.15 237.53 39.15"/><path class="cls-3" d="M196.81,217.76c13.68-2.66,22.08-9.43,25-10.65a5.19,5.19,0,0,1,3.83-.25,3.73,3.73,0,0,1,2.17,2,4,4,0,0,1,0,3.16,3.89,3.89,0,0,1-2.42,2.33,15.13,15.13,0,0,1-3.08.91,90.39,90.39,0,0,1-25.48,2.53"/><path class="cls-1" d="M74.52,305.64v-6.88H65.11v6.88H64V291h1.09v6.8h9.41V291h1.09v14.69Z"/><path class="cls-1" d="M89.7,305.9a7.33,7.33,0,0,1-7.37-7.56v0a7.4,7.4,0,0,1,7.41-7.6,7.32,7.32,0,0,1,7.37,7.55s0,0,0,.05A7.4,7.4,0,0,1,89.7,305.9ZM96,298.3a6.36,6.36,0,0,0-6.28-6.62,6.29,6.29,0,0,0-6.24,6.57v.05a6.36,6.36,0,0,0,6.28,6.61A6.29,6.29,0,0,0,96,298.34Zm-7.84-8.72H87.2L89.3,287h.84l2.1,2.56h-1l-1.55-1.43Z"/><path class="cls-1" d="M109,292v13.69h-1.09V292h-5.13v-1h11.34v1Z"/><path class="cls-1" d="M120.44,305.64V291H130.9v1h-9.36v5.78H130v1h-8.41v5.9H131v1Z"/><path class="cls-1" d="M137.52,305.64V291h1.09v13.69h8.63v1Z"/><path class="cls-1" d="M158.49,305.85a8.35,8.35,0,0,1-5.92-2.35l.72-.82a7.12,7.12,0,0,0,5.27,2.19c2.2,0,3.71-1.24,3.71-2.92v0c0-1.56-.82-2.46-4.15-3.13-3.53-.72-5-1.91-5-4.14v0c0-2.18,2-3.86,4.73-3.86a7.29,7.29,0,0,1,5,1.78l-.69.86a6.35,6.35,0,0,0-4.39-1.66c-2.16,0-3.59,1.24-3.59,2.78v0c0,1.55.8,2.5,4.29,3.21s4.83,1.91,4.83,4.05v0C163.37,304.22,161.33,305.85,158.49,305.85Z"/><path class="cls-1" d="M190.14,305.94l-2.54-2.63a6.4,6.4,0,0,1-5,2.54c-2.58,0-4.51-1.65-4.51-4.09,0-2,1.41-3.44,3.8-4.33a4.84,4.84,0,0,1-1.64-3.38A3.42,3.42,0,0,1,184,290.7a3.26,3.26,0,0,1,3.38,3.21c0,1.87-1.37,3-3.62,3.82l3.87,4a19.6,19.6,0,0,0,1.91-3.57l1,.4a20.83,20.83,0,0,1-2.19,3.9l2.71,2.79Zm-7.58-7.83c-2.33.79-3.36,2.16-3.36,3.61a3.23,3.23,0,0,0,3.44,3.19,5.65,5.65,0,0,0,4.27-2.31Zm1.34-6.49a2.4,2.4,0,0,0-2.54,2.39c0,.95.4,1.66,1.7,3.05,2.1-.68,3.17-1.68,3.17-3.11A2.28,2.28,0,0,0,183.9,291.62Z"/><path class="cls-1" d="M216.77,305.64l-4.68-6.08h-4.81v6.08h-1.09V291h6.17c3.17,0,5.25,1.72,5.25,4.18v0c0,2.45-1.83,3.86-4.31,4.2l4.85,6.27Zm-.25-10.47c0-2-1.56-3.22-4.23-3.22h-5v6.62h4.95c2.46,0,4.29-1.24,4.29-3.36Z"/><path class="cls-1" d="M224.37,305.64V291h10.46v1h-9.37v5.78h8.42v1h-8.42v5.9h9.47v1Zm4.31-16.06,1.84-2.79,1.28.63-2.24,2.16Z"/><path class="cls-1" d="M246.42,305.85a8.34,8.34,0,0,1-5.92-2.35l.71-.82a7.15,7.15,0,0,0,5.27,2.19c2.21,0,3.72-1.24,3.72-2.92v0c0-1.56-.82-2.46-4.16-3.13-3.52-.72-4.95-1.91-4.95-4.14v0c0-2.18,2-3.86,4.72-3.86a7.31,7.31,0,0,1,5,1.78l-.69.86a6.37,6.37,0,0,0-4.39-1.66c-2.16,0-3.59,1.24-3.59,2.78v0c0,1.55.8,2.5,4.28,3.21s4.83,1.91,4.83,4.05v0C251.29,304.22,249.25,305.85,246.42,305.85Z"/><path class="cls-1" d="M258,305.64V291h1.09v14.69Z"/><path class="cls-1" d="M271.54,305.64h-4.9V291h4.9c4.62,0,7.81,3.17,7.81,7.3v.05C279.35,302.43,276.16,305.64,271.54,305.64Zm6.67-7.34a6.28,6.28,0,0,0-6.67-6.35h-3.8v12.69h3.8c4.09,0,6.67-2.8,6.67-6.3Z"/><path class="cls-1" d="M286.07,305.64V291h10.46v1h-9.37v5.78h8.42v1h-8.42v5.9h9.47v1Z"/><path class="cls-1" d="M314.54,305.64l-10.35-13.06v13.06h-1.05V291h1l10.14,12.78V291h1.05v14.69Z"/><path class="cls-1" d="M329.39,305.9a7.31,7.31,0,0,1-7.31-7.56v0a7.39,7.39,0,0,1,7.35-7.6,7.72,7.72,0,0,1,5.71,2.35l-.77.79a6.77,6.77,0,0,0-5-2.16,6.28,6.28,0,0,0-6.19,6.57v.05a6.34,6.34,0,0,0,6.21,6.61,6.73,6.73,0,0,0,5.06-2.29l.74.71A7.75,7.75,0,0,1,329.39,305.9Z"/><path class="cls-1" d="M341.24,305.64V291h10.45v1h-9.36v5.78h8.42v1h-8.42v5.9h9.47v1Z"/><path class="cls-1" d="M363.29,305.85a8.32,8.32,0,0,1-5.92-2.35l.71-.82a7.15,7.15,0,0,0,5.27,2.19c2.2,0,3.71-1.24,3.71-2.92v0c0-1.56-.81-2.46-4.15-3.13-3.53-.72-5-1.91-5-4.14v0c0-2.18,2-3.86,4.73-3.86a7.33,7.33,0,0,1,5,1.78l-.7.86a6.35,6.35,0,0,0-4.39-1.66c-2.16,0-3.59,1.24-3.59,2.78v0c0,1.55.8,2.5,4.29,3.21s4.83,1.91,4.83,4.05v0C368.16,304.22,366.12,305.85,363.29,305.85Z"/></svg>